<svg width="42" height="38" viewBox="0 0 42 38" fill="none" xmlns="http://www.w3.org/2000/svg">
<path d="M35.7778 17.3334H6.22222C3.89035 17.3334 2 18.8258 2 20.6667V32.3334C2 34.1743 3.89035 35.6667 6.22222 35.6667H35.7778C38.1096 35.6667 40 34.1743 40 32.3334V20.6667C40 18.8258 38.1096 17.3334 35.7778 17.3334Z" stroke="black" stroke-width="3" stroke-linecap="round" stroke-linejoin="round"/>
<path d="M10.4441 17.3334V10.6667C10.4441 8.45657 11.5562 6.33695 13.5357 4.77415C15.5153 3.21135 18.2001 2.33337 20.9996 2.33337C23.7992 2.33337 26.484 3.21135 28.4636 4.77415C30.4431 6.33695 31.5552 8.45657 31.5552 10.6667V17.3334" stroke="black" stroke-width="3" stroke-linecap="round" stroke-linejoin="round"/>
</svg>
