<svg width="49" height="41" viewBox="0 0 49 41" fill="none" xmlns="http://www.w3.org/2000/svg">
<path d="M46.9986 29.7016V35.2716C47.0012 35.7887 46.8721 36.3005 46.6196 36.7743C46.3672 37.2481 45.997 37.6734 45.5326 38.0229C45.0683 38.3725 44.5201 38.6386 43.9232 38.8043C43.3263 38.9699 42.6937 39.0315 42.0662 38.9849C35.1038 38.3641 28.416 36.4119 22.54 33.285C17.0732 30.4344 12.4383 26.631 8.96451 22.145C5.14069 17.3013 2.76104 11.7866 2.01836 6.04771C1.96182 5.53428 2.03618 5.01681 2.23671 4.52826C2.43723 4.0397 2.75952 3.59076 3.18307 3.21002C3.60661 2.82928 4.12213 2.52508 4.6968 2.31678C5.27146 2.10849 5.89269 2.00067 6.52091 2.00018H13.3087C14.4067 1.99131 15.4712 2.31039 16.3038 2.89794C17.1364 3.48549 17.6802 4.30142 17.8339 5.19364C18.1203 6.97616 18.6517 8.72637 19.4177 10.4109C19.7221 11.0754 19.788 11.7976 19.6075 12.492C19.4271 13.1863 19.0078 13.8236 18.3995 14.3284L15.526 16.6864C18.7469 21.3346 23.437 25.1833 29.1015 27.8264L31.975 25.4684C32.5902 24.9692 33.3669 24.6252 34.213 24.4771C35.0591 24.329 35.9392 24.3831 36.7491 24.6329C38.8019 25.2615 40.9347 25.6975 43.107 25.9326C44.206 26.0598 45.2098 26.5141 45.9273 27.209C46.6449 27.904 47.0261 28.7911 46.9986 29.7016Z" stroke="black" stroke-width="3" stroke-linecap="round" stroke-linejoin="round"/>
</svg>
